G04 #@! TF.FileFunction,Legend,Top*
%FSLAX46Y46*%
G04 Gerber Fmt 4.6, Leading zero omitted, Abs format (unit mm)*
G04 Created by KiCad (PCBNEW 4.0.4-stable) date Tuesday, March 28, 2017 'PMt' 04:45:14 PM*
%MOMM*%
%LPD*%
G01*
G04 APERTURE LIST*
%ADD10C,0.100000*%
%ADD11C,0.120000*%
%ADD12C,0.150000*%
G04 APERTURE END LIST*
D10*
D11*
X178400000Y-113320000D02*
X178400000Y-112990000D01*
X178400000Y-112990000D02*
X184820000Y-112990000D01*
X184820000Y-112990000D02*
X184820000Y-113320000D01*
X178400000Y-115280000D02*
X178400000Y-115610000D01*
X178400000Y-115610000D02*
X184820000Y-115610000D01*
X184820000Y-115610000D02*
X184820000Y-115280000D01*
X164810000Y-107280000D02*
X165140000Y-107280000D01*
X165140000Y-107280000D02*
X165140000Y-113700000D01*
X165140000Y-113700000D02*
X164810000Y-113700000D01*
X162850000Y-107280000D02*
X162520000Y-107280000D01*
X162520000Y-107280000D02*
X162520000Y-113700000D01*
X162520000Y-113700000D02*
X162850000Y-113700000D01*
X181610000Y-109340000D02*
X184270000Y-109340000D01*
X184270000Y-109340000D02*
X184270000Y-106560000D01*
X184270000Y-106560000D02*
X181610000Y-106560000D01*
X181610000Y-106560000D02*
X181610000Y-109340000D01*
X180340000Y-109340000D02*
X178950000Y-109340000D01*
X178950000Y-109340000D02*
X178950000Y-107950000D01*
D12*
X157480000Y-73660000D02*
X177800000Y-73660000D01*
X177800000Y-73660000D02*
X177800000Y-96520000D01*
X177800000Y-96520000D02*
X157480000Y-96520000D01*
X157480000Y-96520000D02*
X157480000Y-73660000D01*
X180340000Y-73660000D02*
X200660000Y-73660000D01*
X200660000Y-73660000D02*
X200660000Y-96520000D01*
X200660000Y-96520000D02*
X180340000Y-96520000D01*
X180340000Y-96520000D02*
X180340000Y-73660000D01*
D11*
X195500000Y-109700000D02*
X204300000Y-109700000D01*
X204300000Y-109700000D02*
X204300000Y-118900000D01*
X189600000Y-112400000D02*
X189600000Y-109700000D01*
X189600000Y-109700000D02*
X191500000Y-109700000D01*
X204300000Y-118900000D02*
X189600000Y-118900000D01*
X189600000Y-118900000D02*
X189600000Y-116300000D01*
X165100000Y-102930000D02*
X188020000Y-102930000D01*
X188020000Y-102930000D02*
X188020000Y-100270000D01*
X188020000Y-100270000D02*
X165100000Y-100270000D01*
X165100000Y-100270000D02*
X165100000Y-102930000D01*
X163830000Y-102930000D02*
X162500000Y-102930000D01*
X162500000Y-102930000D02*
X162500000Y-101600000D01*
X171390000Y-110490000D02*
X171390000Y-115630000D01*
X171390000Y-115630000D02*
X174050000Y-115630000D01*
X174050000Y-115630000D02*
X174050000Y-110490000D01*
X174050000Y-110490000D02*
X171390000Y-110490000D01*
X171390000Y-109220000D02*
X171390000Y-107890000D01*
X171390000Y-107890000D02*
X172720000Y-107890000D01*
M02*
