G04 #@! TF.FileFunction,Copper,L2,Bot,Signal*
%FSLAX46Y46*%
G04 Gerber Fmt 4.6, Leading zero omitted, Abs format (unit mm)*
G04 Created by KiCad (PCBNEW 4.0.4-stable) date Tuesday, March 28, 2017 'PMt' 04:45:14 PM*
%MOMM*%
%LPD*%
G01*
G04 APERTURE LIST*
%ADD10C,0.100000*%
%ADD11C,1.600000*%
%ADD12O,1.600000X1.600000*%
%ADD13R,1.700000X1.700000*%
%ADD14O,1.700000X1.700000*%
%ADD15O,2.032000X1.727200*%
%ADD16R,3.500000X3.500000*%
%ADD17C,1.016000*%
%ADD18C,0.508000*%
%ADD19C,0.254000*%
G04 APERTURE END LIST*
D10*
D11*
X177800000Y-114300000D03*
D12*
X185420000Y-114300000D03*
D11*
X163830000Y-106680000D03*
D12*
X163830000Y-114300000D03*
D13*
X180340000Y-107950000D03*
D14*
X182880000Y-107950000D03*
D15*
X173990000Y-94488000D03*
X171450000Y-94488000D03*
X168910000Y-94488000D03*
X166370000Y-94488000D03*
X163830000Y-94488000D03*
X161290000Y-94488000D03*
X196850000Y-94488000D03*
X194310000Y-94488000D03*
X191770000Y-94488000D03*
X189230000Y-94488000D03*
X186690000Y-94488000D03*
X184150000Y-94488000D03*
D16*
X190500000Y-114300000D03*
X196500000Y-114300000D03*
X193500000Y-109600000D03*
D13*
X163830000Y-101600000D03*
D14*
X166370000Y-101600000D03*
X168910000Y-101600000D03*
X171450000Y-101600000D03*
X173990000Y-101600000D03*
X176530000Y-101600000D03*
X179070000Y-101600000D03*
X181610000Y-101600000D03*
X184150000Y-101600000D03*
X186690000Y-101600000D03*
D13*
X172720000Y-109220000D03*
D14*
X172720000Y-111760000D03*
X172720000Y-114300000D03*
D17*
X172720000Y-111760000D02*
X177800000Y-111760000D01*
X180340000Y-107950000D02*
X179070000Y-107950000D01*
X179070000Y-107950000D02*
X177800000Y-109220000D01*
X177800000Y-109220000D02*
X177800000Y-111760000D01*
X177800000Y-111760000D02*
X177800000Y-114300000D01*
X161290000Y-94488000D02*
X161290000Y-92710000D01*
X184150000Y-91440000D02*
X184150000Y-94488000D01*
X181610000Y-88900000D02*
X184150000Y-91440000D01*
X165100000Y-88900000D02*
X181610000Y-88900000D01*
X161290000Y-92710000D02*
X165100000Y-88900000D01*
X163830000Y-101600000D02*
X163830000Y-100330000D01*
X161290000Y-97790000D02*
X161290000Y-94488000D01*
X163830000Y-100330000D02*
X161290000Y-97790000D01*
D18*
X196850000Y-94488000D02*
X196850000Y-97790000D01*
X184150000Y-99060000D02*
X181610000Y-101600000D01*
X195580000Y-99060000D02*
X184150000Y-99060000D01*
X196850000Y-97790000D02*
X195580000Y-99060000D01*
X194310000Y-94488000D02*
X194310000Y-96520000D01*
X182880000Y-97790000D02*
X179070000Y-101600000D01*
X193040000Y-97790000D02*
X182880000Y-97790000D01*
X194310000Y-96520000D02*
X193040000Y-97790000D01*
X191770000Y-94488000D02*
X191770000Y-95250000D01*
X191770000Y-95250000D02*
X190500000Y-96520000D01*
X190500000Y-96520000D02*
X181610000Y-96520000D01*
X181610000Y-96520000D02*
X176530000Y-101600000D01*
X173990000Y-94488000D02*
X173990000Y-101600000D01*
X171450000Y-94488000D02*
X171450000Y-101600000D01*
X168910000Y-94488000D02*
X168910000Y-101600000D01*
D17*
X185420000Y-114300000D02*
X185420000Y-109220000D01*
X185420000Y-109220000D02*
X184150000Y-107950000D01*
X184150000Y-107950000D02*
X182880000Y-107950000D01*
D18*
X196500000Y-114300000D02*
X196500000Y-115920000D01*
D17*
X196500000Y-115920000D02*
X194310000Y-118110000D01*
X185420000Y-116840000D02*
X185420000Y-114300000D01*
X186690000Y-118110000D02*
X185420000Y-116840000D01*
X194310000Y-118110000D02*
X186690000Y-118110000D01*
D18*
X172720000Y-106680000D02*
X172720000Y-109220000D01*
X163830000Y-106680000D02*
X172720000Y-106680000D01*
X172720000Y-106680000D02*
X175260000Y-106680000D01*
X181610000Y-104140000D02*
X184150000Y-101600000D01*
X177800000Y-104140000D02*
X181610000Y-104140000D01*
X175260000Y-106680000D02*
X177800000Y-104140000D01*
X184150000Y-101600000D02*
X184150000Y-101600000D01*
D19*
G36*
X202998000Y-119178000D02*
X195936076Y-119178000D01*
X197639709Y-117474368D01*
X198250000Y-117474368D01*
X198767697Y-117376957D01*
X199243170Y-117070998D01*
X199562148Y-116604159D01*
X199674368Y-116050000D01*
X199674368Y-112550000D01*
X199576957Y-112032303D01*
X199270998Y-111556830D01*
X198804159Y-111237852D01*
X198250000Y-111125632D01*
X196674368Y-111125632D01*
X196674368Y-107850000D01*
X196576957Y-107332303D01*
X196270998Y-106856830D01*
X195804159Y-106537852D01*
X195250000Y-106425632D01*
X191750000Y-106425632D01*
X191232303Y-106523043D01*
X190756830Y-106829002D01*
X190437852Y-107295841D01*
X190325632Y-107850000D01*
X190325632Y-111350000D01*
X190423043Y-111867697D01*
X190453482Y-111915000D01*
X190372998Y-111915000D01*
X190372998Y-112073748D01*
X190214250Y-111915000D01*
X188623691Y-111915000D01*
X188390302Y-112011673D01*
X188211673Y-112190301D01*
X188115000Y-112423690D01*
X188115000Y-114014250D01*
X188273750Y-114173000D01*
X190373000Y-114173000D01*
X190373000Y-114153000D01*
X190627000Y-114153000D01*
X190627000Y-114173000D01*
X192726250Y-114173000D01*
X192885000Y-114014250D01*
X192885000Y-112774368D01*
X193325632Y-112774368D01*
X193325632Y-116050000D01*
X193354797Y-116205000D01*
X192873116Y-116205000D01*
X192885000Y-116176310D01*
X192885000Y-114585750D01*
X192726250Y-114427000D01*
X190627000Y-114427000D01*
X190627000Y-114447000D01*
X190373000Y-114447000D01*
X190373000Y-114427000D01*
X188273750Y-114427000D01*
X188115000Y-114585750D01*
X188115000Y-116176310D01*
X188126884Y-116205000D01*
X187479077Y-116205000D01*
X187325000Y-116050924D01*
X187325000Y-115391894D01*
X187492805Y-115140756D01*
X187660042Y-114300000D01*
X187492805Y-113459244D01*
X187325000Y-113208106D01*
X187325000Y-109220000D01*
X187179991Y-108490988D01*
X186989117Y-108205325D01*
X186767038Y-107872961D01*
X185497038Y-106602962D01*
X184879012Y-106190009D01*
X184150000Y-106045000D01*
X184061627Y-106045000D01*
X183739890Y-105830022D01*
X182880000Y-105658979D01*
X182020110Y-105830022D01*
X181911797Y-105902394D01*
X181744159Y-105787852D01*
X181685522Y-105775978D01*
X182241811Y-105665325D01*
X182777433Y-105307433D01*
X184204733Y-103880134D01*
X185009890Y-103719978D01*
X185738869Y-103232890D01*
X185967853Y-102890191D01*
X186333110Y-103041476D01*
X186563000Y-102920155D01*
X186563000Y-101727000D01*
X186817000Y-101727000D01*
X186817000Y-102920155D01*
X187046890Y-103041476D01*
X187456924Y-102871645D01*
X187885183Y-102481358D01*
X188131486Y-101956892D01*
X188010819Y-101727000D01*
X186817000Y-101727000D01*
X186563000Y-101727000D01*
X186543000Y-101727000D01*
X186543000Y-101473000D01*
X186563000Y-101473000D01*
X186563000Y-101453000D01*
X186817000Y-101453000D01*
X186817000Y-101473000D01*
X188010819Y-101473000D01*
X188131486Y-101243108D01*
X187885183Y-100718642D01*
X187876797Y-100711000D01*
X195580000Y-100711000D01*
X196211811Y-100585325D01*
X196747433Y-100227433D01*
X198017433Y-98957433D01*
X198375325Y-98421811D01*
X198425214Y-98171000D01*
X198501000Y-97790000D01*
X198501000Y-96184814D01*
X198648159Y-96086486D01*
X199138195Y-95353094D01*
X199310273Y-94488000D01*
X199138195Y-93622906D01*
X198648159Y-92889514D01*
X197914767Y-92399478D01*
X197049673Y-92227400D01*
X196650327Y-92227400D01*
X195785233Y-92399478D01*
X195580000Y-92536610D01*
X195374767Y-92399478D01*
X194509673Y-92227400D01*
X194110327Y-92227400D01*
X193245233Y-92399478D01*
X193040000Y-92536610D01*
X192834767Y-92399478D01*
X191969673Y-92227400D01*
X191570327Y-92227400D01*
X190705233Y-92399478D01*
X190500000Y-92536610D01*
X190294767Y-92399478D01*
X189429673Y-92227400D01*
X189030327Y-92227400D01*
X188165233Y-92399478D01*
X187960000Y-92536610D01*
X187754767Y-92399478D01*
X186889673Y-92227400D01*
X186490327Y-92227400D01*
X186055000Y-92313992D01*
X186055000Y-91440000D01*
X185909991Y-90710988D01*
X185909991Y-90710987D01*
X185497038Y-90092961D01*
X182957038Y-87552962D01*
X182339012Y-87140009D01*
X181610000Y-86995000D01*
X165100000Y-86995000D01*
X164370988Y-87140009D01*
X163752962Y-87552961D01*
X159942962Y-91362962D01*
X159530009Y-91980988D01*
X159385000Y-92710000D01*
X159385000Y-93049413D01*
X159001805Y-93622906D01*
X158829727Y-94488000D01*
X159001805Y-95353094D01*
X159385000Y-95926587D01*
X159385000Y-97790000D01*
X159530009Y-98519012D01*
X159942962Y-99137038D01*
X161555681Y-100749758D01*
X161555632Y-100750000D01*
X161555632Y-102450000D01*
X161653043Y-102967697D01*
X161959002Y-103443170D01*
X162425841Y-103762148D01*
X162980000Y-103874368D01*
X164680000Y-103874368D01*
X165197697Y-103776957D01*
X165400285Y-103646595D01*
X165510110Y-103719978D01*
X166370000Y-103891021D01*
X167229890Y-103719978D01*
X167640000Y-103445951D01*
X168050110Y-103719978D01*
X168910000Y-103891021D01*
X169769890Y-103719978D01*
X170180000Y-103445951D01*
X170590110Y-103719978D01*
X171450000Y-103891021D01*
X172309890Y-103719978D01*
X172720000Y-103445951D01*
X173130110Y-103719978D01*
X173990000Y-103891021D01*
X174849890Y-103719978D01*
X175260000Y-103445951D01*
X175670110Y-103719978D01*
X175849477Y-103755656D01*
X174576134Y-105029000D01*
X165286199Y-105029000D01*
X165076126Y-104818560D01*
X164268928Y-104483382D01*
X163394907Y-104482619D01*
X162587125Y-104816388D01*
X161968560Y-105433874D01*
X161633382Y-106241072D01*
X161632619Y-107115093D01*
X161966388Y-107922875D01*
X162583874Y-108541440D01*
X163391072Y-108876618D01*
X164265093Y-108877381D01*
X165072875Y-108543612D01*
X165285859Y-108331000D01*
X170453530Y-108331000D01*
X170445632Y-108370000D01*
X170445632Y-110070000D01*
X170543043Y-110587697D01*
X170673405Y-110790285D01*
X170600022Y-110900110D01*
X170428979Y-111760000D01*
X170600022Y-112619890D01*
X171087110Y-113348869D01*
X171429809Y-113577853D01*
X171278524Y-113943110D01*
X171399845Y-114173000D01*
X172593000Y-114173000D01*
X172593000Y-114153000D01*
X172847000Y-114153000D01*
X172847000Y-114173000D01*
X174040155Y-114173000D01*
X174161476Y-113943110D01*
X174046286Y-113665000D01*
X175684798Y-113665000D01*
X175603382Y-113861072D01*
X175602619Y-114735093D01*
X175936388Y-115542875D01*
X176553874Y-116161440D01*
X177361072Y-116496618D01*
X178235093Y-116497381D01*
X179042875Y-116163612D01*
X179661440Y-115546126D01*
X179996618Y-114738928D01*
X179997381Y-113864907D01*
X179705000Y-113157292D01*
X179705000Y-110224368D01*
X181190000Y-110224368D01*
X181707697Y-110126957D01*
X181910285Y-109996595D01*
X182020110Y-110069978D01*
X182880000Y-110241021D01*
X183515000Y-110114711D01*
X183515000Y-113208106D01*
X183347195Y-113459244D01*
X183179958Y-114300000D01*
X183347195Y-115140756D01*
X183515000Y-115391894D01*
X183515000Y-116840000D01*
X183621807Y-117376957D01*
X183660009Y-117569012D01*
X184072962Y-118187038D01*
X185063923Y-119178000D01*
X155142000Y-119178000D01*
X155142000Y-114649041D01*
X162438086Y-114649041D01*
X162677611Y-115155134D01*
X163092577Y-115531041D01*
X163480961Y-115691904D01*
X163703000Y-115569915D01*
X163703000Y-114427000D01*
X163957000Y-114427000D01*
X163957000Y-115569915D01*
X164179039Y-115691904D01*
X164567423Y-115531041D01*
X164982389Y-115155134D01*
X165218199Y-114656890D01*
X171278524Y-114656890D01*
X171448355Y-115066924D01*
X171838642Y-115495183D01*
X172363108Y-115741486D01*
X172593000Y-115620819D01*
X172593000Y-114427000D01*
X172847000Y-114427000D01*
X172847000Y-115620819D01*
X173076892Y-115741486D01*
X173601358Y-115495183D01*
X173991645Y-115066924D01*
X174161476Y-114656890D01*
X174040155Y-114427000D01*
X172847000Y-114427000D01*
X172593000Y-114427000D01*
X171399845Y-114427000D01*
X171278524Y-114656890D01*
X165218199Y-114656890D01*
X165221914Y-114649041D01*
X165100629Y-114427000D01*
X163957000Y-114427000D01*
X163703000Y-114427000D01*
X162559371Y-114427000D01*
X162438086Y-114649041D01*
X155142000Y-114649041D01*
X155142000Y-113950959D01*
X162438086Y-113950959D01*
X162559371Y-114173000D01*
X163703000Y-114173000D01*
X163703000Y-113030085D01*
X163957000Y-113030085D01*
X163957000Y-114173000D01*
X165100629Y-114173000D01*
X165221914Y-113950959D01*
X164982389Y-113444866D01*
X164567423Y-113068959D01*
X164179039Y-112908096D01*
X163957000Y-113030085D01*
X163703000Y-113030085D01*
X163480961Y-112908096D01*
X163092577Y-113068959D01*
X162677611Y-113444866D01*
X162438086Y-113950959D01*
X155142000Y-113950959D01*
X155142000Y-71322000D01*
X202998000Y-71322000D01*
X202998000Y-119178000D01*
X202998000Y-119178000D01*
G37*
X202998000Y-119178000D02*
X195936076Y-119178000D01*
X197639709Y-117474368D01*
X198250000Y-117474368D01*
X198767697Y-117376957D01*
X199243170Y-117070998D01*
X199562148Y-116604159D01*
X199674368Y-116050000D01*
X199674368Y-112550000D01*
X199576957Y-112032303D01*
X199270998Y-111556830D01*
X198804159Y-111237852D01*
X198250000Y-111125632D01*
X196674368Y-111125632D01*
X196674368Y-107850000D01*
X196576957Y-107332303D01*
X196270998Y-106856830D01*
X195804159Y-106537852D01*
X195250000Y-106425632D01*
X191750000Y-106425632D01*
X191232303Y-106523043D01*
X190756830Y-106829002D01*
X190437852Y-107295841D01*
X190325632Y-107850000D01*
X190325632Y-111350000D01*
X190423043Y-111867697D01*
X190453482Y-111915000D01*
X190372998Y-111915000D01*
X190372998Y-112073748D01*
X190214250Y-111915000D01*
X188623691Y-111915000D01*
X188390302Y-112011673D01*
X188211673Y-112190301D01*
X188115000Y-112423690D01*
X188115000Y-114014250D01*
X188273750Y-114173000D01*
X190373000Y-114173000D01*
X190373000Y-114153000D01*
X190627000Y-114153000D01*
X190627000Y-114173000D01*
X192726250Y-114173000D01*
X192885000Y-114014250D01*
X192885000Y-112774368D01*
X193325632Y-112774368D01*
X193325632Y-116050000D01*
X193354797Y-116205000D01*
X192873116Y-116205000D01*
X192885000Y-116176310D01*
X192885000Y-114585750D01*
X192726250Y-114427000D01*
X190627000Y-114427000D01*
X190627000Y-114447000D01*
X190373000Y-114447000D01*
X190373000Y-114427000D01*
X188273750Y-114427000D01*
X188115000Y-114585750D01*
X188115000Y-116176310D01*
X188126884Y-116205000D01*
X187479077Y-116205000D01*
X187325000Y-116050924D01*
X187325000Y-115391894D01*
X187492805Y-115140756D01*
X187660042Y-114300000D01*
X187492805Y-113459244D01*
X187325000Y-113208106D01*
X187325000Y-109220000D01*
X187179991Y-108490988D01*
X186989117Y-108205325D01*
X186767038Y-107872961D01*
X185497038Y-106602962D01*
X184879012Y-106190009D01*
X184150000Y-106045000D01*
X184061627Y-106045000D01*
X183739890Y-105830022D01*
X182880000Y-105658979D01*
X182020110Y-105830022D01*
X181911797Y-105902394D01*
X181744159Y-105787852D01*
X181685522Y-105775978D01*
X182241811Y-105665325D01*
X182777433Y-105307433D01*
X184204733Y-103880134D01*
X185009890Y-103719978D01*
X185738869Y-103232890D01*
X185967853Y-102890191D01*
X186333110Y-103041476D01*
X186563000Y-102920155D01*
X186563000Y-101727000D01*
X186817000Y-101727000D01*
X186817000Y-102920155D01*
X187046890Y-103041476D01*
X187456924Y-102871645D01*
X187885183Y-102481358D01*
X188131486Y-101956892D01*
X188010819Y-101727000D01*
X186817000Y-101727000D01*
X186563000Y-101727000D01*
X186543000Y-101727000D01*
X186543000Y-101473000D01*
X186563000Y-101473000D01*
X186563000Y-101453000D01*
X186817000Y-101453000D01*
X186817000Y-101473000D01*
X188010819Y-101473000D01*
X188131486Y-101243108D01*
X187885183Y-100718642D01*
X187876797Y-100711000D01*
X195580000Y-100711000D01*
X196211811Y-100585325D01*
X196747433Y-100227433D01*
X198017433Y-98957433D01*
X198375325Y-98421811D01*
X198425214Y-98171000D01*
X198501000Y-97790000D01*
X198501000Y-96184814D01*
X198648159Y-96086486D01*
X199138195Y-95353094D01*
X199310273Y-94488000D01*
X199138195Y-93622906D01*
X198648159Y-92889514D01*
X197914767Y-92399478D01*
X197049673Y-92227400D01*
X196650327Y-92227400D01*
X195785233Y-92399478D01*
X195580000Y-92536610D01*
X195374767Y-92399478D01*
X194509673Y-92227400D01*
X194110327Y-92227400D01*
X193245233Y-92399478D01*
X193040000Y-92536610D01*
X192834767Y-92399478D01*
X191969673Y-92227400D01*
X191570327Y-92227400D01*
X190705233Y-92399478D01*
X190500000Y-92536610D01*
X190294767Y-92399478D01*
X189429673Y-92227400D01*
X189030327Y-92227400D01*
X188165233Y-92399478D01*
X187960000Y-92536610D01*
X187754767Y-92399478D01*
X186889673Y-92227400D01*
X186490327Y-92227400D01*
X186055000Y-92313992D01*
X186055000Y-91440000D01*
X185909991Y-90710988D01*
X185909991Y-90710987D01*
X185497038Y-90092961D01*
X182957038Y-87552962D01*
X182339012Y-87140009D01*
X181610000Y-86995000D01*
X165100000Y-86995000D01*
X164370988Y-87140009D01*
X163752962Y-87552961D01*
X159942962Y-91362962D01*
X159530009Y-91980988D01*
X159385000Y-92710000D01*
X159385000Y-93049413D01*
X159001805Y-93622906D01*
X158829727Y-94488000D01*
X159001805Y-95353094D01*
X159385000Y-95926587D01*
X159385000Y-97790000D01*
X159530009Y-98519012D01*
X159942962Y-99137038D01*
X161555681Y-100749758D01*
X161555632Y-100750000D01*
X161555632Y-102450000D01*
X161653043Y-102967697D01*
X161959002Y-103443170D01*
X162425841Y-103762148D01*
X162980000Y-103874368D01*
X164680000Y-103874368D01*
X165197697Y-103776957D01*
X165400285Y-103646595D01*
X165510110Y-103719978D01*
X166370000Y-103891021D01*
X167229890Y-103719978D01*
X167640000Y-103445951D01*
X168050110Y-103719978D01*
X168910000Y-103891021D01*
X169769890Y-103719978D01*
X170180000Y-103445951D01*
X170590110Y-103719978D01*
X171450000Y-103891021D01*
X172309890Y-103719978D01*
X172720000Y-103445951D01*
X173130110Y-103719978D01*
X173990000Y-103891021D01*
X174849890Y-103719978D01*
X175260000Y-103445951D01*
X175670110Y-103719978D01*
X175849477Y-103755656D01*
X174576134Y-105029000D01*
X165286199Y-105029000D01*
X165076126Y-104818560D01*
X164268928Y-104483382D01*
X163394907Y-104482619D01*
X162587125Y-104816388D01*
X161968560Y-105433874D01*
X161633382Y-106241072D01*
X161632619Y-107115093D01*
X161966388Y-107922875D01*
X162583874Y-108541440D01*
X163391072Y-108876618D01*
X164265093Y-108877381D01*
X165072875Y-108543612D01*
X165285859Y-108331000D01*
X170453530Y-108331000D01*
X170445632Y-108370000D01*
X170445632Y-110070000D01*
X170543043Y-110587697D01*
X170673405Y-110790285D01*
X170600022Y-110900110D01*
X170428979Y-111760000D01*
X170600022Y-112619890D01*
X171087110Y-113348869D01*
X171429809Y-113577853D01*
X171278524Y-113943110D01*
X171399845Y-114173000D01*
X172593000Y-114173000D01*
X172593000Y-114153000D01*
X172847000Y-114153000D01*
X172847000Y-114173000D01*
X174040155Y-114173000D01*
X174161476Y-113943110D01*
X174046286Y-113665000D01*
X175684798Y-113665000D01*
X175603382Y-113861072D01*
X175602619Y-114735093D01*
X175936388Y-115542875D01*
X176553874Y-116161440D01*
X177361072Y-116496618D01*
X178235093Y-116497381D01*
X179042875Y-116163612D01*
X179661440Y-115546126D01*
X179996618Y-114738928D01*
X179997381Y-113864907D01*
X179705000Y-113157292D01*
X179705000Y-110224368D01*
X181190000Y-110224368D01*
X181707697Y-110126957D01*
X181910285Y-109996595D01*
X182020110Y-110069978D01*
X182880000Y-110241021D01*
X183515000Y-110114711D01*
X183515000Y-113208106D01*
X183347195Y-113459244D01*
X183179958Y-114300000D01*
X183347195Y-115140756D01*
X183515000Y-115391894D01*
X183515000Y-116840000D01*
X183621807Y-117376957D01*
X183660009Y-117569012D01*
X184072962Y-118187038D01*
X185063923Y-119178000D01*
X155142000Y-119178000D01*
X155142000Y-114649041D01*
X162438086Y-114649041D01*
X162677611Y-115155134D01*
X163092577Y-115531041D01*
X163480961Y-115691904D01*
X163703000Y-115569915D01*
X163703000Y-114427000D01*
X163957000Y-114427000D01*
X163957000Y-115569915D01*
X164179039Y-115691904D01*
X164567423Y-115531041D01*
X164982389Y-115155134D01*
X165218199Y-114656890D01*
X171278524Y-114656890D01*
X171448355Y-115066924D01*
X171838642Y-115495183D01*
X172363108Y-115741486D01*
X172593000Y-115620819D01*
X172593000Y-114427000D01*
X172847000Y-114427000D01*
X172847000Y-115620819D01*
X173076892Y-115741486D01*
X173601358Y-115495183D01*
X173991645Y-115066924D01*
X174161476Y-114656890D01*
X174040155Y-114427000D01*
X172847000Y-114427000D01*
X172593000Y-114427000D01*
X171399845Y-114427000D01*
X171278524Y-114656890D01*
X165218199Y-114656890D01*
X165221914Y-114649041D01*
X165100629Y-114427000D01*
X163957000Y-114427000D01*
X163703000Y-114427000D01*
X162559371Y-114427000D01*
X162438086Y-114649041D01*
X155142000Y-114649041D01*
X155142000Y-113950959D01*
X162438086Y-113950959D01*
X162559371Y-114173000D01*
X163703000Y-114173000D01*
X163703000Y-113030085D01*
X163957000Y-113030085D01*
X163957000Y-114173000D01*
X165100629Y-114173000D01*
X165221914Y-113950959D01*
X164982389Y-113444866D01*
X164567423Y-113068959D01*
X164179039Y-112908096D01*
X163957000Y-113030085D01*
X163703000Y-113030085D01*
X163480961Y-112908096D01*
X163092577Y-113068959D01*
X162677611Y-113444866D01*
X162438086Y-113950959D01*
X155142000Y-113950959D01*
X155142000Y-71322000D01*
X202998000Y-71322000D01*
X202998000Y-119178000D01*
M02*
