G04 #@! TF.FileFunction,Copper,L1,Top,Signal*
%FSLAX46Y46*%
G04 Gerber Fmt 4.6, Leading zero omitted, Abs format (unit mm)*
G04 Created by KiCad (PCBNEW 4.0.4-stable) date Tuesday, March 28, 2017 'PMt' 04:45:14 PM*
%MOMM*%
%LPD*%
G01*
G04 APERTURE LIST*
%ADD10C,0.100000*%
%ADD11C,1.600000*%
%ADD12O,1.600000X1.600000*%
%ADD13R,1.700000X1.700000*%
%ADD14O,1.700000X1.700000*%
%ADD15O,2.032000X1.727200*%
%ADD16R,3.500000X3.500000*%
%ADD17C,1.016000*%
G04 APERTURE END LIST*
D10*
D11*
X177800000Y-114300000D03*
D12*
X185420000Y-114300000D03*
D11*
X163830000Y-106680000D03*
D12*
X163830000Y-114300000D03*
D13*
X180340000Y-107950000D03*
D14*
X182880000Y-107950000D03*
D15*
X173990000Y-94488000D03*
X171450000Y-94488000D03*
X168910000Y-94488000D03*
X166370000Y-94488000D03*
X163830000Y-94488000D03*
X161290000Y-94488000D03*
X196850000Y-94488000D03*
X194310000Y-94488000D03*
X191770000Y-94488000D03*
X189230000Y-94488000D03*
X186690000Y-94488000D03*
X184150000Y-94488000D03*
D16*
X190500000Y-114300000D03*
X196500000Y-114300000D03*
X193500000Y-109600000D03*
D13*
X163830000Y-101600000D03*
D14*
X166370000Y-101600000D03*
X168910000Y-101600000D03*
X171450000Y-101600000D03*
X173990000Y-101600000D03*
X176530000Y-101600000D03*
X179070000Y-101600000D03*
X181610000Y-101600000D03*
X184150000Y-101600000D03*
X186690000Y-101600000D03*
D13*
X172720000Y-109220000D03*
D14*
X172720000Y-111760000D03*
X172720000Y-114300000D03*
D17*
X166370000Y-94488000D02*
X166370000Y-101600000D01*
X189230000Y-94488000D02*
X189230000Y-92710000D01*
X189230000Y-92710000D02*
X187960000Y-91440000D01*
X187960000Y-91440000D02*
X167640000Y-91440000D01*
X167640000Y-91440000D02*
X166370000Y-92710000D01*
X166370000Y-92710000D02*
X166370000Y-94488000D01*
M02*
