M48
;DRILL file {KiCad 4.0.4-stable} date Tuesday, March 28, 2017 'PMt' 04:45:16 PM
;FORMAT={-:-/ absolute / inch / decimal}
FMAT,2
INCH,TZ
T1C0.031
T2C0.039
T3C0.040
%
G90
G05
M72
T1
X6.45Y-4.2
X6.45Y-4.5
X7.Y-4.5
X7.3Y-4.5
T2
X6.45Y-4.
X6.55Y-4.
X6.65Y-4.
X6.75Y-4.
X6.8Y-4.3
X6.8Y-4.4
X6.8Y-4.5
X6.85Y-4.
X6.95Y-4.
X7.05Y-4.
X7.1Y-4.25
X7.15Y-4.
X7.2Y-4.25
X7.25Y-4.
X7.35Y-4.
T3
X6.35Y-3.72
X6.45Y-3.72
X6.55Y-3.72
X6.65Y-3.72
X6.75Y-3.72
X6.85Y-3.72
X7.25Y-3.72
X7.35Y-3.72
X7.45Y-3.72
X7.55Y-3.72
X7.65Y-3.72
X7.75Y-3.72
T2
X7.5Y-4.5394G85X7.5Y-4.4606
G05
X7.6575Y-4.315G85X7.5787Y-4.315
G05
X7.7362Y-4.5394G85X7.7362Y-4.4606
G05
T0
M30
